<svg width="48" height="36" viewBox="0 0 48 36" fill="none" xmlns="http://www.w3.org/2000/svg">
<g clip-path="url(#clip0_1_215)">
<path d="M29.8885 6.12845C36.6903 6.12845 42.1695 11.8595 41.6656 18.7243C41.2248 25.0222 35.7456 29.7456 29.4477 29.7456H12.4433C9.35736 29.7456 6.58628 27.4784 6.27138 24.4554C5.95649 20.9285 8.72757 17.9685 12.1914 17.9685C12.3804 17.9685 12.5063 17.9685 12.6953 17.9685L14.9625 18.1575C16.2851 18.2834 17.5446 17.4647 17.9855 16.2051L18.7412 14.0638C20.4417 9.34038 24.9132 6.12845 29.8885 6.12845ZM29.8885 0.271393C22.1421 0.271393 15.5923 5.24674 13.1991 12.1115C12.8842 12.1115 12.5063 12.0485 12.1914 12.0485C5.64159 12.0485 0.351349 17.3387 0.351349 23.8886C0.351349 30.4384 5.64159 35.7286 12.1914 35.7286H29.8885C39.7133 35.6656 47.6486 27.7303 47.6486 17.9685C47.6486 8.20676 39.7133 0.271393 29.8885 0.271393Z" fill="#B1FF2E"/>
</g>
<defs>
<clipPath id="clip0_1_215">
<rect width="47.2973" height="35.4572" fill="white" transform="translate(0.351351 0.271393)"/>
</clipPath>
</defs>
</svg>
