<svg width="357" height="61" viewBox="0 0 357 61" fill="none" xmlns="http://www.w3.org/2000/svg">
<rect y="0.024292" width="60" height="60" rx="16" fill="black"/>
<path d="M34.1085 21.9888C38.8542 21.9888 42.6771 25.868 42.3256 30.5145C42.018 34.7774 38.1951 37.9746 33.8009 37.9746H21.9368C19.7836 37.9746 17.8502 36.4399 17.6305 34.3937C17.4108 32.0065 19.3442 30.003 21.761 30.003C21.8928 30.003 21.9807 30.003 22.1125 30.003L23.6944 30.1309C24.6172 30.2161 25.496 29.6619 25.8036 28.8094L26.3309 27.36C27.5173 24.1628 30.6372 21.9888 34.1085 21.9888ZM34.1085 18.0243C28.7037 18.0243 24.1338 21.392 22.464 26.0385C22.2443 26.0385 21.9807 25.9959 21.761 25.9959C17.1911 25.9959 13.5 29.5767 13.5 34.0101C13.5 38.4435 17.1911 42.0243 21.761 42.0243H34.1085C40.9634 41.9817 46.5 36.6104 46.5 30.003C46.5 23.3955 40.9634 18.0243 34.1085 18.0243Z" fill="#B1FF2E"/>
<path d="M93.8158 41.357H89.6633L80.7161 20.2421H87.266L91.7182 32.2956C93.1737 28.6197 94.8005 23.7898 96.1704 20.2421H102.677L93.8158 41.357ZM110.271 20.2421V41.357H103.935V20.2421H110.271ZM110.442 14.1727C110.442 15.9679 108.987 17.3784 107.061 17.3784C105.22 17.3784 103.721 15.9679 103.721 14.1727C103.721 12.4202 105.22 11.0525 107.061 11.0525C108.987 11.0525 110.442 12.4202 110.442 14.1727ZM133.491 29.3036V41.357H127.155V29.3036C127.155 26.0979 126.299 24.6874 123.816 24.6874C121.247 24.6874 119.749 26.0979 119.749 29.3036V41.357H113.413V20.2421H119.749V22.251C121.375 20.6696 123.602 19.9429 125.442 19.9429C131.393 19.9429 133.491 22.8067 133.491 29.3036ZM143.011 20.2421V41.357H136.675V20.2421H143.011ZM143.182 14.1727C143.182 15.9679 141.726 17.3784 139.8 17.3784C137.959 17.3784 136.461 15.9679 136.461 14.1727C136.461 12.4202 137.959 11.0525 139.8 11.0525C141.726 11.0525 143.182 12.4202 143.182 14.1727ZM161.35 33.7916L165.802 37.8094C163.405 40.4594 160.28 41.699 156.94 41.699C150.776 41.699 145.81 37.0828 145.81 30.8423C145.81 24.6019 150.776 19.9429 156.94 19.9429C160.28 19.9429 163.405 21.1825 165.802 23.8325L161.35 27.8503C160.408 25.6705 158.353 25.1576 156.94 25.1576C154.329 25.1576 152.146 27.4657 152.146 30.8423C152.146 34.1763 154.329 36.4844 156.94 36.4844C158.353 36.4844 160.451 36.0997 161.35 33.7916ZM174.723 20.2421V41.357H168.387V20.2421H174.723ZM174.894 14.1727C174.894 15.9679 173.439 17.3784 171.512 17.3784C169.671 17.3784 168.173 15.9679 168.173 14.1727C168.173 12.4202 169.671 11.0525 171.512 11.0525C173.439 11.0525 174.894 12.4202 174.894 14.1727ZM178.25 32.2956V20.2421H184.586V32.2956C184.586 35.544 185.485 36.9118 187.925 36.9118C190.493 36.9118 191.992 35.544 191.992 32.2956V20.2421H198.328V41.357H191.992V39.4336C190.793 40.9296 188.182 41.699 186.341 41.699C180.39 41.699 178.25 38.878 178.25 32.2956ZM207.42 26.91C207.42 29.4318 218.122 28.235 218.122 34.9029C218.122 39.2626 214.269 41.699 209.474 41.699C206.435 41.699 203.396 40.203 200.998 37.8094L205.151 33.6634C206.349 35.1166 208.062 36.2279 209.474 36.3561C210.887 36.4844 212.086 35.886 212.3 35.2448C212.814 33.6206 209.86 33.5351 208.961 33.2787C205.579 32.2528 201.64 30.8423 201.64 26.6535C201.64 21.6526 206.863 19.9429 209.474 19.9429C212.471 19.9429 215.511 21.3107 217.951 23.7898L213.841 27.8931C212.728 26.4398 210.802 25.2858 209.474 25.2858C208.79 25.2858 207.42 25.5422 207.42 26.91ZM246.581 20.2421H252.916V40.7159C252.916 46.9563 248.336 52 241.743 52C238.104 52 235.365 50.333 232.967 47.683L237.462 43.6224C238.789 45.5886 239.988 46.7854 241.743 46.7854C244.74 46.7854 246.538 43.4942 246.538 39.9038C245.767 40.9296 243.498 41.6562 242.171 41.6562C236.007 41.6562 231.469 37.04 231.469 30.7996C231.469 24.5592 236.007 19.9002 242.171 19.9002C243.627 19.9002 245.896 20.6696 246.581 21.6526V20.2421ZM242.599 36.9118C245.468 36.9118 247.437 33.6206 247.437 30.7996C247.437 27.9358 245.51 24.6874 242.599 24.6874C239.988 24.6874 237.805 27.4229 237.805 30.7996C237.805 34.1335 239.988 36.9118 242.599 36.9118ZM261.409 26.4826L256.7 23.7898C259.055 21.1397 262.223 19.9002 265.519 19.9002C271.855 19.9002 274.423 23.3624 274.423 26.6108V41.357H268.088V39.861C267.103 40.8869 265.348 41.6562 263.378 41.6562C257.599 41.6562 255.373 39.0917 255.373 35.1593C255.373 30.7141 258.969 27.7221 264.791 27.7221H268.088C268.088 26.1406 266.889 25.1148 265.091 25.1148C263.25 25.1148 262.351 25.4567 261.409 26.4826ZM268.088 34.39V32.5093H264.363C262.694 32.5093 261.452 33.6634 261.709 35.2876C261.88 36.4416 262.908 36.9118 264.363 36.9118C267.146 36.9118 268.088 35.3303 268.088 34.39ZM289.38 19.9429C295.588 19.9429 299.698 24.6019 299.698 30.8423C299.698 37.0828 295.16 41.699 288.952 41.699C287.582 41.699 285.271 40.9296 284.586 39.9465V41.357H278.25V10.3258H284.586V21.7381C285.314 20.6696 288.053 19.9429 289.38 19.9429ZM288.524 36.9118C291.178 36.9118 293.362 34.1763 293.362 30.8423C293.362 27.4657 291.178 24.7301 288.524 24.7301C285.613 24.7301 283.73 28.0213 283.73 30.8423C283.73 33.6634 285.656 36.9118 288.524 36.9118ZM316.752 20.5413L315.896 25.2858C314.312 24.6019 314.012 24.7301 313.285 24.7301C310.716 24.7301 309.218 26.0979 309.218 29.4746V41.357H302.882V20.2421H309.218V22.1228C310.031 20.6696 312.257 19.9429 313.67 19.9429C314.997 19.9429 315.768 19.9857 316.752 20.5413ZM323.832 20.2421V41.357H317.497V20.2421H323.832ZM324.004 14.1727C324.004 15.9679 322.548 17.3784 320.622 17.3784C318.781 17.3784 317.283 15.9679 317.283 14.1727C317.283 12.4202 318.781 11.0525 320.622 11.0525C322.548 11.0525 324.004 12.4202 324.004 14.1727ZM348.422 30.8423V32.2528H333.353C333.353 34.7319 335.878 36.4844 337.976 36.4844C340.031 36.4844 341.915 35.6723 342.899 33.8771L347.137 37.7667C345.425 40.0748 342.814 41.699 337.976 41.699C331.041 41.699 326.803 37.0828 326.803 30.8423C326.803 24.6019 330.912 19.9429 337.591 19.9429C344.269 19.9429 348.422 24.5164 348.422 30.8423ZM333.481 28.235H341.786C341.444 26.2261 339.988 25.1576 337.591 25.1576C335.279 25.1576 333.866 26.3971 333.481 28.235ZM357 9.55646V41.357H350.621V9.55646H357Z" fill="black"/>
</svg>
