<svg width="342" height="47" viewBox="0 0 342 47" fill="none" xmlns="http://www.w3.org/2000/svg">
<g clip-path="url(#clip0_1_189)">
<path d="M26.9593 15.3618C33.1674 15.3618 38.1684 20.5845 37.7085 26.8403C37.3061 32.5796 32.3052 36.8841 26.5569 36.8841H11.0366C8.21999 36.8841 5.69076 34.8179 5.40335 32.0631C5.11594 28.8491 7.64517 26.1516 10.8067 26.1516C10.9792 26.1516 11.0941 26.1516 11.2666 26.1516L13.3359 26.3238C14.5431 26.4386 15.6927 25.6925 16.0951 24.5446L16.7849 22.5933C18.3369 18.2888 22.4182 15.3618 26.9593 15.3618ZM26.9593 10.0243C19.8889 10.0243 13.9108 14.5583 11.7264 20.8141C11.439 20.8141 11.0941 20.7567 10.8067 20.7567C4.82852 20.7567 -7.15256e-06 25.5777 -7.15256e-06 31.5465C-7.15256e-06 37.5154 4.82852 42.3364 10.8067 42.3364H26.9593C35.9266 42.279 43.1694 35.0475 43.1694 26.1516C43.1694 17.2558 35.9266 10.0243 26.9593 10.0243Z" fill="#B1FF2E"/>
<path d="M78.8158 36.357H74.6633L65.7161 15.2421H72.266L76.7182 27.2956C78.1737 23.6197 79.8005 18.7898 81.1704 15.2421H87.6774L78.8158 36.357ZM95.2712 15.2421V36.357H88.9354V15.2421H95.2712ZM95.4425 9.17267C95.4425 10.9679 93.9869 12.3784 92.0605 12.3784C90.2197 12.3784 88.7214 10.9679 88.7214 9.17267C88.7214 7.42022 90.2197 6.05245 92.0605 6.05245C93.9869 6.05245 95.4425 7.42022 95.4425 9.17267ZM118.491 24.3036V36.357H112.155V24.3036C112.155 21.0979 111.299 19.6874 108.816 19.6874C106.247 19.6874 104.749 21.0979 104.749 24.3036V36.357H98.4128V15.2421H104.749V17.251C106.375 15.6696 108.602 14.9429 110.442 14.9429C116.393 14.9429 118.491 17.8067 118.491 24.3036ZM128.011 15.2421V36.357H121.675V15.2421H128.011ZM128.182 9.17267C128.182 10.9679 126.726 12.3784 124.8 12.3784C122.959 12.3784 121.461 10.9679 121.461 9.17267C121.461 7.42022 122.959 6.05245 124.8 6.05245C126.726 6.05245 128.182 7.42022 128.182 9.17267ZM146.35 28.7916L150.802 32.8094C148.405 35.4594 145.28 36.699 141.94 36.699C135.776 36.699 130.81 32.0828 130.81 25.8423C130.81 19.6019 135.776 14.9429 141.94 14.9429C145.28 14.9429 148.405 16.1825 150.802 18.8325L146.35 22.8503C145.408 20.6705 143.353 20.1576 141.94 20.1576C139.329 20.1576 137.146 22.4657 137.146 25.8423C137.146 29.1763 139.329 31.4844 141.94 31.4844C143.353 31.4844 145.451 31.0997 146.35 28.7916ZM159.723 15.2421V36.357H153.387V15.2421H159.723ZM159.894 9.17267C159.894 10.9679 158.439 12.3784 156.512 12.3784C154.671 12.3784 153.173 10.9679 153.173 9.17267C153.173 7.42022 154.671 6.05245 156.512 6.05245C158.439 6.05245 159.894 7.42022 159.894 9.17267ZM163.25 27.2956V15.2421H169.586V27.2956C169.586 30.544 170.485 31.9118 172.925 31.9118C175.493 31.9118 176.992 30.544 176.992 27.2956V15.2421H183.328V36.357H176.992V34.4336C175.793 35.9296 173.182 36.699 171.341 36.699C165.39 36.699 163.25 33.878 163.25 27.2956ZM192.42 21.91C192.42 24.4318 203.122 23.235 203.122 29.9029C203.122 34.2626 199.269 36.699 194.474 36.699C191.435 36.699 188.396 35.203 185.998 32.8094L190.151 28.6634C191.349 30.1166 193.062 31.2279 194.474 31.3561C195.887 31.4844 197.086 30.886 197.3 30.2448C197.814 28.6206 194.86 28.5351 193.961 28.2787C190.579 27.2528 186.64 25.8423 186.64 21.6535C186.64 16.6526 191.863 14.9429 194.474 14.9429C197.471 14.9429 200.511 16.3107 202.951 18.7898L198.841 22.8931C197.728 21.4398 195.802 20.2858 194.474 20.2858C193.79 20.2858 192.42 20.5422 192.42 21.91ZM231.581 15.2421H237.916V35.7159C237.916 41.9563 233.336 47 226.743 47C223.104 47 220.365 45.333 217.967 42.683L222.462 38.6224C223.789 40.5886 224.988 41.7854 226.743 41.7854C229.74 41.7854 231.538 38.4942 231.538 34.9038C230.767 35.9296 228.498 36.6562 227.171 36.6562C221.007 36.6562 216.469 32.04 216.469 25.7996C216.469 19.5592 221.007 14.9002 227.171 14.9002C228.627 14.9002 230.896 15.6696 231.581 16.6526V15.2421ZM227.599 31.9118C230.468 31.9118 232.437 28.6206 232.437 25.7996C232.437 22.9358 230.51 19.6874 227.599 19.6874C224.988 19.6874 222.805 22.4229 222.805 25.7996C222.805 29.1335 224.988 31.9118 227.599 31.9118ZM246.409 21.4826L241.7 18.7898C244.055 16.1397 247.223 14.9002 250.519 14.9002C256.855 14.9002 259.423 18.3624 259.423 21.6108V36.357H253.088V34.861C252.103 35.8869 250.348 36.6562 248.378 36.6562C242.599 36.6562 240.373 34.0917 240.373 30.1593C240.373 25.7141 243.969 22.7221 249.791 22.7221H253.088C253.088 21.1406 251.889 20.1148 250.091 20.1148C248.25 20.1148 247.351 20.4567 246.409 21.4826ZM253.088 29.39V27.5093H249.363C247.694 27.5093 246.452 28.6634 246.709 30.2876C246.88 31.4416 247.908 31.9118 249.363 31.9118C252.146 31.9118 253.088 30.3303 253.088 29.39ZM274.38 14.9429C280.588 14.9429 284.698 19.6019 284.698 25.8423C284.698 32.0828 280.16 36.699 273.952 36.699C272.582 36.699 270.271 35.9296 269.586 34.9465V36.357H263.25V5.32583H269.586V16.7381C270.314 15.6696 273.053 14.9429 274.38 14.9429ZM273.524 31.9118C276.178 31.9118 278.362 29.1763 278.362 25.8423C278.362 22.4657 276.178 19.7301 273.524 19.7301C270.613 19.7301 268.73 23.0213 268.73 25.8423C268.73 28.6634 270.656 31.9118 273.524 31.9118ZM301.752 15.5413L300.896 20.2858C299.312 19.6019 299.012 19.7301 298.285 19.7301C295.716 19.7301 294.218 21.0979 294.218 24.4746V36.357H287.882V15.2421H294.218V17.1228C295.031 15.6696 297.257 14.9429 298.67 14.9429C299.997 14.9429 300.768 14.9857 301.752 15.5413ZM308.832 15.2421V36.357H302.497V15.2421H308.832ZM309.004 9.17267C309.004 10.9679 307.548 12.3784 305.622 12.3784C303.781 12.3784 302.283 10.9679 302.283 9.17267C302.283 7.42022 303.781 6.05245 305.622 6.05245C307.548 6.05245 309.004 7.42022 309.004 9.17267ZM333.422 25.8423V27.2528H318.353C318.353 29.7319 320.878 31.4844 322.976 31.4844C325.031 31.4844 326.915 30.6723 327.899 28.8771L332.137 32.7667C330.425 35.0748 327.814 36.699 322.976 36.699C316.041 36.699 311.803 32.0828 311.803 25.8423C311.803 19.6019 315.912 14.9429 322.591 14.9429C329.269 14.9429 333.422 19.5164 333.422 25.8423ZM318.481 23.235H326.786C326.444 21.2261 324.988 20.1576 322.591 20.1576C320.279 20.1576 318.866 21.3971 318.481 23.235ZM342 4.55646V36.357H335.621V4.55646H342Z" fill="black"/>
</g>
<defs>
<clipPath id="clip0_1_189">
<rect width="342" height="47" fill="white"/>
</clipPath>
</defs>
</svg>
