<svg width="2435" height="455" viewBox="0 0 2435 455" fill="none" xmlns="http://www.w3.org/2000/svg">
<path d="M1463.37 395.332H1529.54V152.777H1463.37V395.332ZM1460.56 90.0732C1460.56 68.5234 1472.56 57.7524 1496.57 57.7524C1520.57 57.7524 1532.58 68.5234 1532.58 90.0732C1532.58 100.346 1529.58 108.337 1523.58 114.051C1517.58 119.766 1508.57 122.616 1496.57 122.616C1472.56 122.616 1460.56 111.769 1460.56 90.0732Z" fill="#1B1D21"/>
<path fill-rule="evenodd" clip-rule="evenodd" d="M1195.63 255.393C1216.97 237.313 1227.64 211.213 1227.64 177.077C1227.64 144.243 1217.63 119.544 1197.59 102.982C1177.56 86.4344 1148.31 78.1454 1109.83 78.1454H1008.52V395.332H1075.77V282.512H1104.63C1143.97 282.512 1174.3 273.48 1195.63 255.393ZM1097.9 227.408H1075.77V133.257H1106.36C1124.73 133.257 1138.21 137.011 1146.82 144.534C1155.43 152.057 1159.73 163.701 1159.73 179.467C1159.73 195.079 1154.6 206.977 1144.33 215.151C1134.05 223.325 1118.59 227.408 1097.9 227.408Z" fill="#1B1D21"/>
<path d="M1428.27 150.172C1422.34 148.87 1414.89 148.219 1405.92 148.219C1390.87 148.219 1376.95 152.378 1364.16 160.69C1351.42 168.941 1340.94 180.239 1333.67 193.563H1330.42L1320.65 152.777H1270.54V395.332H1336.71V271.886C1336.71 252.359 1342.6 237.168 1354.39 226.32C1366.18 215.472 1382.63 210.049 1403.75 210.049C1411.42 210.049 1417.92 210.776 1423.28 212.217L1428.27 150.172ZM1736.57 380.148C1753.86 367.125 1762.51 348.188 1762.51 323.306C1762.51 311.301 1760.41 300.959 1756.22 292.279C1752.03 283.6 1745.51 275.939 1736.69 269.282C1727.87 262.632 1713.98 255.477 1695.03 247.809C1673.77 239.274 1660 232.832 1653.71 228.496C1647.42 224.16 1644.26 219.027 1644.26 213.09C1644.26 202.533 1654.03 197.255 1673.56 197.255C1684.54 197.255 1695.32 198.918 1705.88 202.235C1716.43 205.575 1727.79 209.834 1739.94 215.043L1759.9 167.317C1732.28 154.592 1703.85 148.226 1674.64 148.226C1643.97 148.226 1620.3 154.117 1603.6 165.907C1586.87 177.697 1578.52 194.359 1578.52 215.909C1578.52 228.496 1580.52 239.091 1584.5 247.694C1588.47 256.304 1594.83 263.935 1603.6 270.584C1612.33 277.241 1626.05 284.473 1644.7 292.279C1657.71 297.78 1668.13 302.583 1675.95 306.705C1683.75 310.834 1689.25 314.519 1692.44 317.774C1695.62 321.03 1697.2 325.259 1697.2 330.468C1697.2 344.35 1685.2 351.29 1661.18 351.29C1649.47 351.29 1635.91 349.337 1620.51 345.438C1605.1 341.531 1591.26 336.689 1578.96 330.897V385.572C1590.2 390.317 1601.91 393.843 1613.89 396.091C1626.34 398.481 1641.37 399.676 1659.02 399.676C1693.44 399.676 1719.29 393.172 1736.57 380.148ZM2024.65 395.332H1958.48V253.661C1958.48 236.164 1955.54 223.034 1949.7 214.285C1943.83 205.536 1934.61 201.154 1922.03 201.154C1905.11 201.154 1892.82 207.375 1885.15 219.816C1877.48 232.257 1873.65 252.719 1873.65 281.217V395.332H1807.47V152.777H1858.03L1866.92 183.803H1870.61C1877.12 172.664 1886.53 163.946 1898.81 157.657C1911.11 151.367 1925.21 148.219 1941.12 148.219C1977.43 148.219 2002.01 160.085 2014.89 183.803H2020.74C2027.25 172.518 2036.84 163.77 2049.49 157.549C2062.15 151.329 2076.43 148.219 2092.34 148.219C2119.82 148.219 2140.62 155.274 2154.71 169.37C2168.82 183.473 2175.87 206.073 2175.87 237.168V395.332H2109.48V253.661C2109.48 236.164 2106.54 223.034 2100.7 214.285C2094.83 205.536 2085.61 201.154 2073.03 201.154C2056.83 201.154 2044.72 206.946 2036.68 218.514C2028.66 230.089 2024.65 248.452 2024.65 273.618V395.332Z" fill="#1B1D21"/>
<path fill-rule="evenodd" clip-rule="evenodd" d="M2375.15 362.353L2387.95 395.332H2434.16V233.697C2434.16 204.77 2425.48 183.221 2408.13 169.048C2390.77 154.876 2365.82 147.782 2333.28 147.782C2299.3 147.782 2268.34 155.09 2240.42 169.699L2262.33 214.392C2288.51 202.671 2311.29 196.819 2330.67 196.819C2355.84 196.819 2368.43 209.114 2368.43 233.697V244.331L2326.34 245.633C2290.03 246.935 2262.88 253.7 2244.87 265.919C2226.86 278.145 2217.86 297.129 2217.86 322.869C2217.86 347.46 2224.55 366.405 2237.93 379.712C2251.31 393.019 2269.63 399.668 2292.93 399.668C2311.88 399.668 2327.24 396.956 2339.03 391.532C2350.82 386.109 2362.28 376.387 2373.41 362.353H2375.15ZM2342.82 283.814L2368.43 282.949V302.905C2368.43 317.522 2363.83 329.235 2354.65 338.053C2345.47 346.878 2333.2 351.29 2317.87 351.29C2296.47 351.29 2285.77 341.96 2285.77 323.306C2285.77 310.282 2290.46 300.599 2299.87 294.233C2309.27 287.874 2323.59 284.396 2342.82 283.814Z" fill="#1B1D21"/>
<path fill-rule="evenodd" clip-rule="evenodd" d="M787.475 360.904L583.045 421.333C576.8 423.182 570.814 417.782 572.126 411.487L645.157 61.9182C646.523 55.3846 655.564 54.3467 658.416 60.4003L793.638 347.392C796.189 352.806 793.279 359.19 787.475 360.904ZM822.532 346.649L665.964 14.3492V14.3421C664.018 10.2502 661.001 6.76064 657.232 4.24359C653.463 1.72654 649.083 0.275767 644.556 0.0451121C635.028 -0.509421 626.492 4.08325 621.677 11.9L451.87 286.785C449.291 290.937 447.949 295.738 448.002 300.626C448.054 305.513 449.5 310.284 452.169 314.38L535.173 442.889C540.12 450.56 548.692 455 557.601 455C560.126 455 562.666 454.645 565.162 453.905L806.101 382.683C809.728 381.621 813.084 379.793 815.944 377.323C818.803 374.853 821.098 371.798 822.675 368.365C824.231 364.952 825.024 361.24 824.999 357.49C824.975 353.739 824.133 350.042 822.532 346.649Z" fill="#1B1D21"/>
</svg>
